{"asset":{"generator":"3D Builder","version":"2.0"},"scene":0,"scenes":[{"nodes":[0]}],"nodes":[{"mesh":0,"matrix":[0.99999994039535522,0,0,0,0,-1.1920928244535389E-7,-0.99999982118606567,0,0,0.99999982118606567,-1.1920928244535389E-7,0,0,-0.0429999902844429,5.1259987365881443E-9,1]}],"meshes":[{"primitives":[{"attributes":{"POSITION":0,"COLOR_0":1},"mode":4,"indices":2}]}],"accessors":[{"bufferView":0,"byteOffset":0,"count":400,"componentType":5126,"type":"VEC3","min":[0.03184451162815094,0.045069821178913116,0.0429999977350235],"max":[0.064856566488742828,0.053947113454341888,0.044000003486871719]},{"bufferView":1,"byteOffset":0,"count":400,"componentType":5121,"type":"VEC4","normalized":true},{"bufferView":2,"byteOffset":0,"count":2388,"componentType":5125,"type":"SCALAR"}],"bufferViews":[{"buffer":0,"byteOffset":0,"byteLength":4800,"byteStride":12,"target":34962},{"buffer":0,"byteOffset":4800,"byteLength":1600,"byteStride":4,"target":34962},{"buffer":0,"byteOffset":6400,"byteLength":9552,"target":34963}],"buffers":[{"byteLength":15952,"uri":"1_moustache.bin"}]}